# xmcd
#
# Track frame offsets: 
#        150
#        18962
#        39500
#        59512
#        81125
#        100512
#        118175
#        135380
#        153495
#        171125
#
# Disc length: 2536 seconds
#
# Revision: 1
# Processed by: cddbd v1.5.2PL0 Copyright (c) Steve Scherf et al.
# Submitted via: ExactAudioCopyFreeDBPlugin 1.0
#
DISCID=7609e60a
DTITLE=渡辺美奈代 - ALFALFA
DYEAR=1986
DGENRE=JPop
TTITLE0=ピンクのパラダイス
TTITLE1=南の島の伝説
TTITLE2=3√嘘
TTITLE3=アンブレラひとりぼっち
TTITLE4=瞳に約束
TTITLE5=舌たらずだけれど
TTITLE6=うさぎの耳
TTITLE7=少しおませな恋
TTITLE8=雪の帰り道
TTITLE9=リルケの栞
EXTD=
EXTT0=
EXTT1=
EXTT2=
EXTT3=
EXTT4=
EXTT5=
EXTT6=
EXTT7=
EXTT8=
EXTT9=
PLAYORDER=
